<?xml version="1.0" standalone="no"?>
<!DOCTYPE svg PUBLIC "-//W3C//DTD SVG 20010904//EN"
 "http://www.w3.org/TR/2001/REC-SVG-20010904/DTD/svg10.dtd">
<svg version="1.0" xmlns="http://www.w3.org/2000/svg"
 width="1000.000000pt" height="1000.000000pt" viewBox="0 0 1000.000000 1000.000000"
 preserveAspectRatio="xMidYMid meet">

<g transform="translate(0.000000,1000.000000) scale(0.100000,-0.100000)"
fill="#000000" stroke="none">
<path d="M957 9985 c-487 -82 -863 -461 -942 -949 -22 -137 -22 -7935 0 -8072
80 -492 457 -869 949 -949 137 -22 7935 -22 8072 0 492 80 869 457 949 949 22
137 22 7935 0 8072 -81 498 -473 884 -969 953 -54 8 -850 11 -2567 11 l-2489
0 0 -1350 c0 -1074 3 -1350 13 -1349 6 0 32 25 57 55 57 69 155 157 251 226
270 194 625 281 1069 264 342 -13 602 -76 830 -199 507 -273 800 -771 912
-1548 22 -153 22 -163 25 -1813 3 -1546 3 -1660 -13 -1677 -16 -18 -42 -19
-519 -19 -474 0 -503 1 -518 18 -16 17 -17 137 -17 1513 0 842 -5 1559 -10
1642 -40 625 -271 982 -702 1087 -111 27 -301 36 -420 20 -527 -71 -892 -453
-948 -991 -6 -65 -10 -655 -10 -1673 0 -864 -4 -1576 -8 -1582 -21 -32 -52
-34 -535 -34 -475 0 -485 0 -511 21 l-26 20 0 3685 0 3684 -922 -1 c-710 -1
-941 -4 -1001 -14z m6733 -8410 l0 -265 -2685 0 -2685 0 0 265 0 265 2685 0
2685 0 0 -265z"/>
</g>
</svg>
